<?xml version="1.0" encoding="UTF-8"?>
<svg width="11px" height="12px" viewBox="0 0 11 12" version="1.1" xmlns="http://www.w3.org/2000/svg" xmlns:xlink="http://www.w3.org/1999/xlink">
    <!-- Generator: Sketch 51.1 (57501) - http://www.bohemiancoding.com/sketch -->
    <title>Shape</title>
    <desc>Created with Sketch.</desc>
    <defs></defs>
    <g id="Page-1" stroke="none" stroke-width="1" fill="none" fill-rule="evenodd">
        <g id="待处理-各种状态" transform="translate(-1002.000000, -125.000000)" fill="#1565C0" fill-rule="nonzero">
            <g id="Group-6" transform="translate(953.000000, 122.000000)">
                <g id="下载" transform="translate(48.000000, 2.200000)">
                    <path d="M11.9785274,9.16331669 C11.9631962,8.80456635 11.7229009,8.60644909 11.4058669,8.61380367 C11.0917341,8.62107773 10.8845214,8.82271122 10.8550276,9.18940665 C10.8333851,9.45878815 10.8519201,9.73105511 10.8459388,10.0019129 C10.8309513,10.6816475 10.6801412,10.8387107 9.98395051,10.852118 C9.31333486,10.8650422 8.64223796,10.856359 7.97136107,10.8564127 C6.42140458,10.8565335 4.8714206,10.8576474 3.3214641,10.8555537 C2.25403683,10.8541177 2.16152673,10.7641047 2.15642548,9.75121309 C2.15550423,9.57060992 2.16482674,9.38889284 2.14783173,9.20964516 C2.11165544,8.82816006 1.92843652,8.62968044 1.61822247,8.61255555 C1.28336839,8.59404832 1.03930566,8.81628268 1.01370314,9.20922911 C0.990286871,9.56913363 1.00344563,9.93149415 1.00587938,10.2927408 C1.01381315,11.4622124 1.5446324,11.9869775 2.74317981,11.993661 C3.99235476,12.0006398 5.2416122,11.9952178 6.49084217,11.9954997 C6.86097878,11.9957949 7.23114289,11.9959157 7.60126574,11.9957815 C8.54976915,11.9954594 9.49849256,12.0083299 10.4466385,11.9906279 C11.2825843,11.975033 11.8938686,11.5030517 11.9644474,10.7872286 C12.0173987,10.2501298 12.0016,9.70391832 11.9785274,9.16331669 Z M2.27892435,5.56706301 C3.47153175,6.73177024 4.66430415,7.89632985 5.85706279,9.06090287 C5.90606783,9.10876131 5.95598039,9.15573397 6.00465544,9.20388765 C6.19659187,9.39381824 6.42049708,9.50087565 6.6917436,9.40056888 C6.78022493,9.36784906 6.84599125,9.31852777 6.9022288,9.2625632 C6.93935384,9.2374798 6.97573637,9.2098733 7.00877766,9.17852241 C7.62197324,8.59653116 10.2349983,6.03787668 10.8386513,5.44630301 C10.9034964,5.38275571 10.9658115,5.31445746 11.0169478,5.24025408 C11.1810679,5.00202217 11.1585866,4.76864857 10.9639277,4.56018391 C10.7648138,4.34696829 10.5140548,4.33801665 10.2668983,4.45664275 C10.1469019,4.51423123 10.0480668,4.62006735 9.95037297,4.71465687 C9.54404634,5.1079925 8.07443117,6.54112834 7.09039771,7.50306132 C7.09090646,6.00059382 7.09107146,4.49813974 7.09076896,2.99565882 C7.09068646,2.54451997 7.10542647,2.09256247 7.0825052,1.64249727 C7.06117893,1.22441375 6.85329249,1.01113104 6.51857591,1.00042128 C6.17523808,0.989429672 5.96692538,1.19358627 5.92012034,1.6057915 C5.90238282,1.76196888 5.91174658,1.92125988 5.91166408,2.07914171 C5.91111408,3.07164717 5.91137534,4.06417947 5.91137534,5.05671177 C5.91136159,5.79890663 5.91137534,6.54110151 5.91137534,7.28330979 C5.85858904,7.30611166 5.80581648,7.32890011 5.75303019,7.35170198 C5.44735364,7.05447241 5.14130585,6.75753809 4.83602805,6.45991932 C4.19841244,5.8381892 3.56907433,5.2081382 2.92026621,4.59776203 C2.62733593,4.32216672 2.28777935,4.31764393 2.05453787,4.53428184 C1.80314638,4.76777622 1.81200139,5.04577385 2.08579165,5.37301224 C2.14402297,5.44258547 2.21359804,5.5032473 2.27892435,5.56706301 Z" id="Shape"></path>
                </g>
            </g>
        </g>
    </g>
</svg>