<?xml version="1.0" encoding="UTF-8"?>
<svg width="12px" height="12px" viewBox="0 0 12 12" version="1.1" xmlns="http://www.w3.org/2000/svg" xmlns:xlink="http://www.w3.org/1999/xlink">
    <!-- Generator: Sketch 49.1 (51147) - http://www.bohemiancoding.com/sketch -->
    <title>女</title>
    <desc>Created with Sketch.</desc>
    <defs></defs>
    <g id="Page-1" stroke="none" stroke-width="1" fill="none" fill-rule="evenodd">
        <g id="框架01-copy-8" transform="translate(-457.000000, -262.000000)" fill="#FF5757" fill-rule="nonzero">
            <g id="女" transform="translate(457.000000, 262.000000)">
                <path d="M7.17443591,1.49910511 C5.31073186,1.49910511 3.7933799,3.07695979 3.7933799,5.01849422 C3.7933799,6.95716502 5.30935744,8.5364515 7.17443591,8.5364515 C9.03951436,8.5364515 10.5568663,6.95859682 10.5568663,5.01849422 C10.5582407,3.07695979 9.03951437,1.49910511 7.17443591,1.49910511 Z M7.17443591,10.0369884 C5.98556866,10.0369884 4.89840796,9.58596826 4.05589279,8.84142704 L3.36181423,9.56449112 L4.50120262,10.7514616 L3.48138816,11.8124329 L2.34199977,10.6254624 L1.01981446,12 L0,10.9390288 L1.32081091,9.56449112 L0.114076283,8.3087937 L1.13389074,7.24782246 L2.34062536,8.50351987 L3.10754783,7.70600168 C2.63062652,6.92709702 2.35024626,6.00644316 2.35024626,5.01849422 C2.35024626,2.2508054 4.51357234,0 7.17443592,0 C9.83529951,0 12,2.2508054 12,5.01849422 C12,7.78475123 9.8352995,10.0369884 7.17443591,10.0369884 Z" id="Shape"></path>
            </g>
        </g>
    </g>
</svg>