<?xml version="1.0" encoding="UTF-8"?>
<svg width="12px" height="12px" viewBox="0 0 12 12" version="1.1" xmlns="http://www.w3.org/2000/svg" xmlns:xlink="http://www.w3.org/1999/xlink">
    <!-- Generator: Sketch 49.1 (51147) - http://www.bohemiancoding.com/sketch -->
    <title>男 copy 9</title>
    <desc>Created with Sketch.</desc>
    <defs></defs>
    <g id="Page-1" stroke="none" stroke-width="1" fill="none" fill-rule="evenodd">
        <g id="框架01-copy-8" transform="translate(-457.000000, -348.000000)" fill="#0086CD" fill-rule="nonzero">
            <g id="男-copy-9" transform="translate(457.000000, 348.000000)">
                <path d="M9.97262947,7.01367923 C9.97262947,5.92813618 9.62800875,4.89562028 8.99062728,4.04089485 L10.5386214,2.49289598 L10.5386214,3.70017536 C10.5386214,3.90161653 10.6202407,4.08392926 10.7522611,4.21593185 C10.8842268,4.3479162 11.066612,4.42957218 11.268016,4.42957218 C11.6708425,4.42957218 11.9974106,4.10302122 11.9974106,3.70017536 L11.9974106,0.790976146 C11.9989788,0.771483016 12,0.751862241 12,0.731986178 C12,0.529870319 11.9177608,0.346974067 11.7849562,0.214862068 C11.6528629,0.0821665517 11.4700401,1.82349205e-05 11.268016,0 C11.24814,0 11.2284829,0.00102115555 11.209008,0.00258935871 L8.29981765,0.00258935871 C7.89699125,0.00258935871 7.57042305,0.32915855 7.57042305,0.731986178 C7.57042305,0.93340911 7.65207877,1.11575831 7.78406273,1.2477609 C7.91606492,1.37974526 8.09839533,1.461383 8.29981765,1.461383 L9.5071116,1.461383 L7.95911743,3.0094001 C7.1043946,2.37205316 6.07184537,2.02741316 4.98630562,2.0274314 C3.6543946,2.0274314 2.40224289,2.54606901 1.46044858,3.48788441 C0.518672502,4.42960865 0,5.68180064 0,7.0137157 C1.82348651e-05,8.34561253 0.518672502,9.59776805 1.46046681,10.5395652 C2.40224289,11.4813259 3.65441284,12 4.98630562,12 C6.31818016,12 7.57038658,11.4813442 8.51214442,10.5395652 C9.4539752,9.59776805 9.97261123,8.34557606 9.97262947,7.01367923 Z M4.98630562,10.5412428 C4.04407367,10.5412064 3.15824216,10.1743015 2.49197666,9.50801577 C1.82572939,8.84176648 1.45880744,7.95595051 1.4587892,7.0137157 C1.4587892,6.07144442 1.82571116,5.18562845 2.49195842,4.51936093 C3.15822392,3.85311164 4.0440372,3.48618857 4.98630562,3.48617033 C5.92853756,3.48617033 6.81440554,3.85311164 7.48063457,4.51936093 C8.14690007,5.18562845 8.51382203,6.07144442 8.51382203,7.01367923 C8.51382203,7.95595051 8.14688184,8.84176648 7.48063457,9.50805224 C6.81438731,10.1743015 5.92853756,10.5412428 4.98630562,10.5412428 Z" id="Shape"></path>
            </g>
        </g>
    </g>
</svg>