<?xml version="1.0" encoding="UTF-8"?>
<svg width="14px" height="14px" viewBox="0 0 14 14" version="1.1" xmlns="http://www.w3.org/2000/svg" xmlns:xlink="http://www.w3.org/1999/xlink">
    <!-- Generator: Sketch 51.1 (57501) - http://www.bohemiancoding.com/sketch -->
    <title>Group 5</title>
    <desc>Created with Sketch.</desc>
    <defs></defs>
    <g id="Page-1" stroke="none" stroke-width="1" fill="none" fill-rule="evenodd">
        <g id="待处理-各种状态" transform="translate(-1216.000000, -238.000000)" fill-rule="nonzero">
            <g id="Group-10" transform="translate(929.000000, 237.000000)">
                <g id="不合格品处理记录" transform="translate(286.000000, 0.000000)">
                    <g id="Group-5" transform="translate(2.000000, 2.000000)">
                        <path d="M6.78773333,6 L7.97066667,4.81653333 C8.18499837,4.59826734 8.18428565,4.24832447 7.96906667,4.03093333 C7.86521153,3.92633863 7.72399567,3.86738261 7.57659875,3.86708241 C7.42920183,3.86678222 7.287747,3.92516253 7.18346667,4.02933333 L6,5.21226667 L4.81653333,4.02933333 C4.59826734,3.81500163 4.24832447,3.81571435 4.03093333,4.03093333 C3.92633863,4.13478847 3.86738261,4.27600433 3.86708241,4.42340125 C3.86678222,4.57079817 3.92516253,4.712253 4.02933333,4.81653333 L5.21226667,6 L4.02933333,7.18346667 C3.81500163,7.40173266 3.81571435,7.75167553 4.03093333,7.96906667 C4.2496,8.18773334 4.6,8.18773334 4.81653333,7.97066667 L6,6.78773333 L7.18346667,7.97066667 C7.40173266,8.18499837 7.75167553,8.18428565 7.96906667,7.96906667 C8.18773334,7.7504 8.18773334,7.4 7.97066667,7.18346667 L6.78773333,6 Z" id="Shape" fill="#EA6219"></path>
                        <circle id="Oval-3" stroke="#EA6219" cx="6" cy="6" r="6"></circle>
                    </g>
                </g>
            </g>
        </g>
    </g>
</svg>