<?xml version="1.0" encoding="UTF-8"?>
<svg width="11px" height="12px" viewBox="0 0 11 12" version="1.1" xmlns="http://www.w3.org/2000/svg" xmlns:xlink="http://www.w3.org/1999/xlink">
    <!-- Generator: Sketch 51.1 (57501) - http://www.bohemiancoding.com/sketch -->
    <title>下载</title>
    <desc>Created with Sketch.</desc>
    <defs></defs>
    <g id="Page-1" stroke="none" stroke-width="1" fill="none" fill-rule="evenodd">
        <g id="待处理-各种状态" transform="translate(-1194.000000, -125.000000)" fill-rule="nonzero">
            <g id="Group-7" transform="translate(1113.000000, 122.200000)">
                <g id="下载" transform="translate(80.000000, 2.000000)">
                    <rect id="Rectangle-path" fill="#000000" opacity="0" x="0" y="0" width="14" height="14"></rect>
                    <path d="M11.9785274,9.16331669 C11.9631962,8.80456635 11.7229009,8.60644909 11.4058669,8.61380367 C11.0917341,8.62107773 10.8845214,8.82271122 10.8550276,9.18940665 C10.8333851,9.45878815 10.8519201,9.73105511 10.8459388,10.0019129 C10.8309513,10.6816475 10.6801412,10.8387107 9.98395051,10.852118 C9.31333486,10.8650422 8.64223796,10.856359 7.97136107,10.8564127 C6.42140458,10.8565335 4.8714206,10.8576474 3.3214641,10.8555537 C2.25403683,10.8541177 2.16152673,10.7641047 2.15642548,9.75121309 C2.15550423,9.57060992 2.16482674,9.38889284 2.14783173,9.20964516 C2.11165544,8.82816006 1.92843652,8.62968044 1.61822247,8.61255555 C1.28336839,8.59404832 1.03930566,8.81628268 1.01370314,9.20922911 C0.990286871,9.56913363 1.00344563,9.93149415 1.00587938,10.2927408 C1.01381315,11.4622124 1.5446324,11.9869775 2.74317981,11.993661 C3.99235476,12.0006398 5.2416122,11.9952178 6.49084217,11.9954997 C6.86097878,11.9957949 7.23114289,11.9959157 7.60126574,11.9957815 C8.54976915,11.9954594 9.49849256,12.0083299 10.4466385,11.9906279 C11.2825843,11.975033 11.8938686,11.5030517 11.9644474,10.7872286 C12.0173987,10.2501298 12.0016,9.70391832 11.9785274,9.16331669 Z M10.7204774,4.87188316 C9.52786999,3.70717593 8.33509759,2.54261633 7.14233895,1.3780433 C7.09333391,1.33018487 7.04342135,1.28321221 6.9947463,1.23505853 C6.80280987,1.04512794 6.57890466,0.93807053 6.30765814,1.0383773 C6.21917681,1.07109712 6.15341049,1.1204184 6.09717294,1.17638298 C6.0600479,1.20146637 6.02366537,1.22907288 5.99062408,1.26042377 C5.3774285,1.84241502 2.76440347,4.40106949 2.1607504,4.99264317 C2.09590534,5.05619047 2.03359028,5.12448872 1.98245399,5.1986921 C1.81833383,5.436924 1.8408151,5.67029761 2.03547404,5.87876227 C2.23458798,6.09197789 2.48534697,6.10092953 2.73250346,5.98230343 C2.85249982,5.92471494 2.95133492,5.81887883 3.04902877,5.72428931 C3.4553554,5.33095368 4.92497057,3.89781783 5.90900403,2.93588486 C5.90849528,4.43835236 5.90833028,5.94080643 5.90863278,7.44328736 C5.90871528,7.89442621 5.89397527,8.34638371 5.91689654,8.7964489 C5.93822281,9.21453242 6.14610925,9.42781514 6.48082583,9.4385249 C6.82416366,9.44951651 7.03247636,9.2453599 7.0792814,8.83315468 C7.09701892,8.6769773 7.08765516,8.5176863 7.08773766,8.35980447 C7.08828766,7.36729901 7.0880264,6.37476671 7.0880264,5.3822344 C7.08804015,4.64003954 7.0880264,3.89784467 7.0880264,3.15563639 C7.1408127,3.13283452 7.19358526,3.11004607 7.24637155,3.0872442 C7.5520481,3.38447377 7.85809589,3.68140809 8.16337369,3.97902685 C8.8009893,4.60075698 9.43032741,5.23080798 10.0791355,5.84118414 C10.3720658,6.11677945 10.7116224,6.12130225 10.9448639,5.90466433 C11.1962554,5.67116996 11.1874004,5.39317233 10.9136101,5.06593394 C10.8553788,4.99636071 10.7858037,4.93569888 10.7204774,4.87188316 Z" id="Shape" fill="#43A047"></path>
                </g>
            </g>
        </g>
    </g>
</svg>